<svg width="14" height="12" viewBox="0 0 14 12" fill="none" xmlns="http://www.w3.org/2000/svg">
<path d="M3.33333 9.15268V10.6667M5.66667 3.48668C5.13333 2.99534 4.19533 2.65334 3.33333 2.63201L5.66667 3.48668ZM1 8.15334C1.50133 8.77001 2.43333 9.12201 3.33333 9.15201L1 8.15334ZM3.33333 2.63134C2.30733 2.60601 1.38867 3.03401 1.38867 4.20468C1.38867 6.35801 5.66667 5.28134 5.66667 7.43534C5.66667 8.66334 4.528 9.19134 3.33333 9.15201V2.63134ZM3.33333 2.63134V1.33334V2.63134Z" stroke="white" stroke-linecap="round" stroke-linejoin="round"/>
<path d="M7.66669 6.00001L10.2267 8.66668M13 6.00001H7.66669H13ZM7.66669 6.00001L10.2267 3.33334L7.66669 6.00001Z" stroke="white" stroke-linecap="round" stroke-linejoin="round"/>
</svg>
