<svg width="12" height="13" viewBox="0 0 12 13" fill="none" xmlns="http://www.w3.org/2000/svg">
<path d="M7.75 2.33332V1.16666V2.33332ZM7.75 2.33332V3.49999V2.33332ZM7.75 2.33332H5.125H7.75ZM0.75 5.83332V11.0833C0.75 11.3927 0.872916 11.6895 1.09171 11.9083C1.3105 12.1271 1.60725 12.25 1.91667 12.25H10.0833C10.3928 12.25 10.6895 12.1271 10.9083 11.9083C11.1271 11.6895 11.25 11.3927 11.25 11.0833V5.83332H0.75Z" stroke="#251F47" stroke-linecap="round" stroke-linejoin="round"/>
<path d="M0.75 5.83331V3.49998C0.75 3.19056 0.872916 2.89381 1.09171 2.67502C1.3105 2.45623 1.60725 2.33331 1.91667 2.33331H3.08333" stroke="#251F47" stroke-linecap="round" stroke-linejoin="round"/>
<path d="M3.08337 1.16666V3.49999" stroke="#251F47" stroke-linecap="round" stroke-linejoin="round"/>
<path d="M11.25 5.83331V3.49998C11.25 3.19056 11.127 2.89381 10.9083 2.67502C10.6895 2.45623 10.3927 2.33331 10.0833 2.33331H9.79163" stroke="#251F47" stroke-linecap="round" stroke-linejoin="round"/>
</svg>
