<svg width="30" height="22" viewBox="0 0 30 22" fill="none" xmlns="http://www.w3.org/2000/svg">
<path d="M8.33333 15C8.68696 15 9.02609 14.8595 9.27614 14.6095C9.52619 14.3594 9.66667 14.0203 9.66667 13.6667C9.66667 13.3131 9.52619 12.9739 9.27614 12.7239C9.02609 12.4738 8.68696 12.3333 8.33333 12.3333C7.97971 12.3333 7.64057 12.4738 7.39052 12.7239C7.14048 12.9739 7 13.3131 7 13.6667C7 14.0203 7.14048 14.3594 7.39052 14.6095C7.64057 14.8595 7.97971 15 8.33333 15Z" fill="#251F47" stroke="#251F47" stroke-width="1.5" stroke-linecap="round" stroke-linejoin="round"/>
<path d="M1.66669 7.00001H28.3334M1.66669 7.00001V2.46667C1.66669 2.2545 1.75097 2.05102 1.901 1.90099C2.05103 1.75096 2.25451 1.66667 2.46669 1.66667H27.5334C27.7455 1.66667 27.949 1.75096 28.099 1.90099C28.2491 2.05102 28.3334 2.2545 28.3334 2.46667V7.00001H1.66669ZM1.66669 7.00001V19.5333C1.66669 19.7455 1.75097 19.949 1.901 20.099C2.05103 20.2491 2.25451 20.3333 2.46669 20.3333H27.5334C27.7455 20.3333 27.949 20.2491 28.099 20.099C28.2491 19.949 28.3334 19.7455 28.3334 19.5333V7.00001H1.66669Z" stroke="#251F47" stroke-width="1.5" stroke-linecap="round" stroke-linejoin="round"/>
</svg>
