<svg width="26" height="26" viewBox="0 0 26 26" fill="none" xmlns="http://www.w3.org/2000/svg">
<path d="M1 1.8V24.2C1 24.4122 1.08429 24.6157 1.23431 24.7657C1.38434 24.9157 1.58783 25 1.8 25H24.2C24.4122 25 24.6157 24.9157 24.7657 24.7657C24.9157 24.6157 25 24.4122 25 24.2V1.8C25 1.58783 24.9157 1.38434 24.7657 1.23431C24.6157 1.08429 24.4122 1 24.2 1H1.8C1.58783 1 1.38434 1.08429 1.23431 1.23431C1.08429 1.38434 1 1.58783 1 1.8V1.8Z" stroke="#251F47" stroke-width="1.5" stroke-linecap="round" stroke-linejoin="round"/>
<path d="M5 5V18.3333" stroke="#251F47" stroke-width="1.5" stroke-linecap="round" stroke-linejoin="round"/>
<path d="M10.3333 5V9" stroke="#251F47" stroke-width="1.5" stroke-linecap="round" stroke-linejoin="round"/>
<path d="M15.6667 5V14.3333" stroke="#251F47" stroke-width="1.5" stroke-linecap="round" stroke-linejoin="round"/>
<path d="M21 5V11.6667" stroke="#251F47" stroke-width="1.5" stroke-linecap="round" stroke-linejoin="round"/>
</svg>
