<svg width="26" height="22" viewBox="0 0 26 22" fill="none" xmlns="http://www.w3.org/2000/svg">
<path d="M5.66667 17.3053V20.3333M10.3333 5.97334C9.26667 4.99067 7.39067 4.30667 5.66667 4.26401L10.3333 5.97334ZM1 15.3067C2.00267 16.54 3.86667 17.244 5.66667 17.304L1 15.3067ZM5.66667 4.26267C3.61467 4.21201 1.77733 5.06801 1.77733 7.40934C1.77733 11.716 10.3333 9.56267 10.3333 13.8707C10.3333 16.3267 8.056 17.3827 5.66667 17.304V4.26267ZM5.66667 4.26267V1.66667V4.26267Z" stroke="#251F47" stroke-width="1.5" stroke-linecap="round" stroke-linejoin="round"/>
<path d="M14.3334 11L19.4534 16.3333M25 11H14.3334H25ZM14.3334 11L19.4534 5.66667L14.3334 11Z" stroke="#251F47" stroke-width="1.5" stroke-linecap="round" stroke-linejoin="round"/>
</svg>
