<svg width="15" height="15" viewBox="0 0 15 15" fill="none" xmlns="http://www.w3.org/2000/svg">
<path d="M7.26664 13.9333C10.9486 13.9333 13.9333 10.9487 13.9333 7.26667C13.9333 3.58467 10.9486 0.600006 7.26664 0.600006C3.58464 0.600006 0.599976 3.58467 0.599976 7.26667C0.599976 10.9487 3.58464 13.9333 7.26664 13.9333Z" stroke="white" stroke-linecap="round" stroke-linejoin="round"/>
<path d="M7.26666 10.194V11.6M9.26666 4.93335C8.81 4.47668 8.006 4.15935 7.26666 4.13935L9.26666 4.93335ZM5.26666 9.26668C5.696 9.84002 6.49533 10.1667 7.26666 10.194L5.26666 9.26668ZM7.26666 4.13935C6.38666 4.11535 5.6 4.51335 5.6 5.60002C5.6 7.60002 9.26666 6.60002 9.26666 8.60002C9.26666 9.74068 8.29066 10.2307 7.26666 10.194V4.13935ZM7.26666 4.13935V2.93335V4.13935Z" stroke="white" stroke-linecap="round" stroke-linejoin="round"/>
</svg>
