<svg width="30" height="30" viewBox="0 0 30 30" fill="none" xmlns="http://www.w3.org/2000/svg">
<path d="M8.125 20.9113V23.75M12.5 10.2875C11.5 9.36625 9.74125 8.725 8.125 8.685L12.5 10.2875ZM3.75 19.0375C4.69 20.1938 6.4375 20.8538 8.125 20.91L3.75 19.0375ZM8.125 8.68375C6.20125 8.63625 4.47875 9.43875 4.47875 11.6338C4.47875 15.6713 12.5 13.6525 12.5 17.6913C12.5 19.9938 10.365 20.9838 8.125 20.91V8.68375ZM8.125 8.68375V6.25V8.68375Z" stroke="white" stroke-width="1.5" stroke-linecap="round" stroke-linejoin="round"/>
<path d="M26.25 15L21.45 20M16.25 15H26.25H16.25ZM26.25 15L21.45 10L26.25 15Z" stroke="white" stroke-width="1.5" stroke-linecap="round" stroke-linejoin="round"/>
</svg>
