<svg width="14" height="14" viewBox="0 0 14 14" fill="none" xmlns="http://www.w3.org/2000/svg">
<path d="M9.04163 9.04167L11.0833 11.0833" stroke="#251F47" stroke-linecap="round" stroke-linejoin="round"/>
<path d="M2.91663 6.41667C2.91663 6.8763 3.00716 7.33142 3.18305 7.75606C3.35894 8.1807 3.61675 8.56654 3.94175 8.89155C4.26676 9.21655 4.65259 9.47436 5.07723 9.65025C5.50187 9.82614 5.957 9.91667 6.41663 9.91667C6.87625 9.91667 7.33138 9.82614 7.75602 9.65025C8.18066 9.47436 8.56649 9.21655 8.8915 8.89155C9.2165 8.56654 9.47431 8.1807 9.6502 7.75606C9.8261 7.33142 9.91663 6.8763 9.91663 6.41667C9.91663 5.48841 9.54788 4.59818 8.8915 3.9418C8.23512 3.28542 7.34488 2.91667 6.41663 2.91667C5.48837 2.91667 4.59813 3.28542 3.94175 3.9418C3.28538 4.59818 2.91663 5.48841 2.91663 6.41667V6.41667Z" stroke="#251F47" stroke-linecap="round" stroke-linejoin="round"/>
</svg>
